# AST/ASF file generated using VICON BodyLanguage
# -----------------------------------------------
:version 1.10
:name VICON
:units
  mass 1.0
  length 0.45
  angle deg
:documentation
   .ast/.asf automatically generated from VICON data using
   VICON BodyBuilder and BodyLanguage model FoxedUp or BRILLIANT.MOD
:root
   order TX TY TZ RX RY RZ
   axis XYZ
   position 0 0 0  
   orientation 0 0 0 
:bonedata
  begin
     id 1 
     name lhipjoint
     direction 0.578396 -0.714046 0.394458 
     length 2.21935 
     axis 0 0 0  XYZ
  end
  begin
     id 2 
     name lfemur
     direction 0.34202 -0.939693 0  
     length 6.39105  
     axis 0 0 20  XYZ
    dof rx ry rz
    limits (-160.0 20.0)
           (-70.0 70.0)
           (-60.0 70.0)
  end
  begin
     id 3 
     name ltibia
     direction 0.34202 -0.939693 0   
     length 6.99037   
     axis 0 0 20   XYZ
    dof rx
    limits (-10.0 170.0)
  end
  begin
     id 4 
     name lfoot
     direction 0.0582372 -0.160005 0.985397   
     length 2.06111   
     axis -90 7.62852e-016 20   XYZ
    dof rx rz
    limits (-45.0 90.0)
           (-70.0 20.0)
  end
  begin
     id 5 
     name ltoes
     direction 1.53556e-011 -4.21875e-011 1   
     length 1.04074   
     axis -90 7.62852e-016 20   XYZ
    dof rx
    limits (-90.0 20.0)
  end
  begin
     id 6 
     name rhipjoint
     direction -0.558179 -0.726269 0.40121   
     length 2.182  
     axis 0 0 0  XYZ 
  end
  begin
     id 7 
     name rfemur
     direction -0.34202 -0.939693 0   
     length 6.51172   
     axis 0 0 -20   XYZ
    dof rx ry rz
    limits (-160.0 20.0)
           (-70.0 70.0)
           (-70.0 60.0)
  end
  begin
     id 8 
     name rtibia
     direction -0.34202 -0.939693 0   
     length 7.02607   
     axis 0 0 -20   XYZ
    dof rx
    limits (-10.0 170.0)
 end
 begin
     id 9 
     name rfoot
     direction -0.0788856 -0.216737 0.973038   
     length 1.96734  
     axis -90 -7.62852e-016 -20   XYZ
    dof rx rz
    limits (-45.0 90.0)
           (-20.0 70.0)
  end
  begin
     id 10 
     name rtoes
     direction -1.53567e-011 -4.21783e-011 1   
     length 0.990825   
     axis -90 -7.62852e-016 -20   XYZ
    dof rx
    limits (-90.0 20.0)
  end
  begin
     id 11 
     name lowerback
     direction 0.00668177 0.999323 -0.0361741   
     length 1.7655   
     axis 0 0 0   XYZ
    dof rx ry rz
    limits (-20.0 45.0)
           (-30.0 30.0)
           (-30.0 30.0)
  end
  begin
     id 12 
     name upperback
     direction -0.00222086 0.99851 0.0545167   
     length 1.74912   
     axis 0 0 0   XYZ
    dof rx ry rz
    limits (-20.0 45.0)
           (-30.0 30.0)
           (-30.0 30.0)
  end
  begin
     id 13 
     name thorax
     direction -0.00733971 0.997496 0.0703443   
     length 1.75715   
     axis 0 0 0   XYZ
    dof rx ry rz
    limits (-20.0 45.0)
           (-30.0 30.0)
           (-30.0 30.0)
  end
  begin
     id 14 
     name lowerneck
     direction 0.0279797 0.994795 0.0979765   
     length 1.46939   
     axis 0 0 0   XYZ
    dof rx ry rz
    limits (-20.0 45.0)
           (-30.0 30.0)
           (-30.0 30.0)
  end
  begin
     id 15 
     name upperneck
     direction 0.00339187 0.976776 -0.214238   
     length 1.48018   
     axis 0 0 0   XYZ
    dof rx ry rz
    limits (-20.0 45.0)
           (-30.0 30.0)
           (-30.0 30.0)
  end
  begin
     id 16
     name head
     direction -0.00263506 0.996603 -0.0823096  
     length 1.4976  
     axis 0 0 0   XYZ
    dof rx ry rz
    limits (-20.0 45.0)
           (-30.0 30.0)
           (-30.0 30.0)
  end
  begin
     id 17 
     name lclavicle
     direction 0.894044 0.44508 -0.0508781  
     length 3.03024  
     axis 0 0 0   XYZ
    dof ry rz
    limits (-20.0 10.0)
           (0.0 20.0)
  end
  begin
     id 18 
     name lhumerus
     direction 1 -4.48961e-011 -2.39475e-018   
     length 4.4661   
     axis 180 -30 -90   XYZ
    dof rx ry rz
    limits (-60.0 90.0)
           (-90.0 90.0)
           (-90.0 90.0)
  end
  begin
     id 19
     name lradius
     direction 1 -4.48961e-011 9.29328e-028   
     length 3.41414   
     axis 180 -30 -90   XYZ
    dof rx
    limits (-10.0 170.0)
  end
  begin
     id 20
     name lwrist
     direction 1 -4.48985e-011 1.53461e-026   
     length 1.70707   
     axis -1.09697e-014 90 90   XYZ
    dof ry
    limits (-180.0 0.0)
 end
  begin
     id 21 
     name lhand
     direction 1 -4.48966e-011 3.06923e-026   
     length 0.328298   
     axis -1.95843e-014 90 90   XYZ
    dof rx rz
    limits (-90.0 90.0)
           (-45.0 45.0)
  end
  begin
     id 22 
     name lfingers
     direction 1 -4.48893e-011 6.13845e-026   
     length 0.264682   
     axis -3.91686e-014 90 90   XYZ
    dof rx
    limits (0.0 90.0)
  end
  begin
     id 23
     name lthumb
     direction 0.707107 -6.34876e-011 0.707107   
     length 0.380032   
     axis -90 45 2.85299e-015   XYZ
    dof rx rz
    limits (-45.0 45.0)
           (-45.0 45.0)
  end
  begin
     id 24 
     name rclavicle
     direction -0.936955 0.347862 -0.0332887   
     length 3.26927  
     axis 0 0 0   XYZ 
    dof ry rz
    limits (-10.0 20.0)
           (-20.0 0.0)
  end
  begin
     id 25 
     name rhumerus
     direction -1 -4.4896e-011 1.78637e-018  
     length 4.40431   
     axis 180 30 90   XYZ
    dof rx ry rz
    limits (-90.0 60.0)
           (-90.0 90.0)
           (-90.0 90.0)
  end
  begin
     id 26 
     name rradius
     direction -1 -4.48955e-011 9.34036e-027   
     length 3.04688   
     axis 180 30 90   XYZ
    dof rx
    limits (-10.0 170.0)
  end
  begin
     id 27 
     name rwrist
     direction -1 -4.49011e-011 1.53461e-026   
     length 1.52344   
     axis -1.09697e-014 -90 -90   XYZ
    dof ry
    limits (-180.0 0.0)
  end
  begin
     id 28
     name rhand
     direction -1 -4.48834e-011 3.06923e-026   
     length 0.500489   
     axis -1.95843e-014 -90 -90   XYZ
    dof rx rz
    limits (-90.0 90.0)
           (-45.0 45.0)
  end
  begin
     id 29
     name rfingers
     direction -1 -4.48967e-011 6.13845e-026   
     length 0.403507   
     axis -3.91686e-014 -90 -90   XYZ
    dof rx
    limits (0.0 90.0)
  end
  begin
     id 30
     name rthumb
     direction -0.707107 -6.34826e-011 0.707107   
     length 0.579358   
     axis -90 -45 -2.85299e-015   XYZ
    dof rx rz
    limits (-45.0 45.0)
           (-45.0 45.0)
  end
:hierarchy
  begin
    root lhipjoint rhipjoint lowerback
    lhipjoint lfemur
    lfemur ltibia
    ltibia lfoot
    lfoot ltoes
    rhipjoint rfemur
    rfemur rtibia
    rtibia rfoot
    rfoot rtoes
    lowerback upperback
    upperback thorax
    thorax lowerneck lclavicle rclavicle
    lowerneck upperneck
    upperneck head
    lclavicle lhumerus
    lhumerus lradius
    lradius lwrist
    lwrist lhand lthumb
    lhand lfingers
    rclavicle rhumerus
    rhumerus rradius
    rradius rwrist
    rwrist rhand rthumb
    rhand rfingers
  end

#!OML:ASF H:\IndianDance\Patient Classification 1\Patient 1\Session 1\dancer.ASF
:FULLY-SPECIFIED
:DEGREES
624
root 7.01508 14.3123 0.816302 129.264 -83.885 -123.911
lowerback 6.70454 -0.0938764 -0.703705
upperback -8.21153 -0.20389 1.90493
thorax -12.6735 0.00149822 2.52945
lowerneck -13.6198 -4.83347 1.2335
upperneck 16.9006 -5.93375 -5.82247
head 7.20061 -3.36501 -2.69861
rclavicle -4.57205e-015 -2.20651e-014
rhumerus 35.7086 -26.548 -63.4769
rradius 54.4546
rwrist -87.808
rhand -47.2212 -18.2036
rfingers 7.12502
rthumb -19.92 -47.2027
lclavicle -4.57205e-015 -2.20651e-014
lhumerus 17.2733 -48.4768 -7.68554
lradius 115.633
lwrist -26.9952
lhand -64.217 129.016
lfingers 7.12502
lthumb -36.1565 -617.262
rfemur -45.7135 -19.0318 24.4008
rtibia 73.0454
rfoot -27.4307 -9.98576
rtoes -7.39288
lfemur -27.7046 31.31 -18.74
ltibia 61.8724
lfoot -30.2341 17.0825
ltoes 6.41318
625
root 6.98149 14.3006 0.783707 123.882 -84.2386 -118.572
lowerback 6.46998 -0.102539 -0.686252
upperback -8.22383 -0.226091 1.79292
thorax -12.5403 -0.0191676 2.39711
lowerneck -13.6579 -4.20077 1.65439
upperneck 17.0142 -5.14983 -5.83706
head 7.26257 -2.96493 -2.70264
rclavicle -1.48095e-014 1.74931e-014
rhumerus 34.0911 -26.3954 -62.9643
rradius 56.6402
rwrist -87.7069
rhand -47.9445 -17.9303
rfingers 7.12502
rthumb -20.615 -46.8556
lclavicle -1.48095e-014 1.74931e-014
lhumerus 16.5657 -47.3 -6.48416
lradius 115.095
lwrist -27.3148
lhand -64.4479 130.422
lfingers 7.12502
lthumb -36.3751 -615.801
rfemur -44.0209 -18.8905 24.7458
rtibia 72.5121
rfoot -27.9057 -9.23211
rtoes -6.45652
lfemur -27.8965 31.0606 -18.2377
ltibia 62.8184
lfoot -29.5055 16.3733
ltoes 4.44035
626
root 6.94627 14.2961 0.74869 117.772 -84.5181 -112.5
lowerback 6.22483 -0.0885666 -0.668308
upperback -8.2281 -0.216865 1.68281
thorax -12.393 -0.0246635 2.26123
lowerneck -13.6588 -3.56695 2.03979
upperneck 17.0672 -4.37043 -5.77656
head 7.3046 -2.56082 -2.67337
rclavicle 7.8023e-015 3.97569e-016
rhumerus 32.3777 -26.2442 -62.3755
rradius 58.9282
rwrist -87.4309
rhand -48.6507 -17.6367
rfingers 7.12502
rthumb -21.2935 -46.4869
lclavicle 7.8023e-015 3.97569e-016
lhumerus 15.8866 -45.9364 -5.1845
lradius 114.434
lwrist -27.636
lhand -65.0702 131.026
lfingers 7.12502
lthumb -36.964 -615.048
rfemur -42.1067 -18.5236 25.0735
rtibia 71.2739
rfoot -28.4131 -8.95777
rtoes -4.98618
lfemur -28.1755 30.849 -17.6403
ltibia 63.9423
lfoot -28.5293 15.4691
ltoes 2.3675
627
root 6.91066 14.2943 0.711045 111.076 -84.7177 -105.836
lowerback 5.98654 -0.0516567 -0.659104
upperback -8.22869 -0.177036 1.5732
thorax -12.2474 -0.0143337 2.12631
lowerneck -13.6425 -2.93348 2.38838
upperneck 17.0783 -3.59731 -5.63964
head 7.33483 -2.15386 -2.6115
rclavicle 9.93923e-017 -3.18055e-015
rhumerus 30.5773 -26.0787 -61.6982
rradius 61.2855
rwrist -86.9231
rhand -49.3352 -17.3035
rfingers 7.12502
rthumb -21.9509 -46.0781
lclavicle 9.93923e-017 -3.18055e-015
lhumerus 15.2712 -44.3885 -3.81256
lradius 113.652
lwrist -27.9102
lhand -66.0877 129.78
lfingers 7.12502
lthumb -37.9258 -616.039
rfemur -40.1077 -17.928 25.3797
rtibia 69.5399
rfoot -29.0154 -9.0558
rtoes -3.24131
lfemur -28.5962 30.6885 -16.9626
ltibia 65.2808
lfoot -27.3304 14.3265
ltoes 0.336646
628
root 6.87577 14.2924 0.670599 103.897 -84.8394 -98.6839
lowerback 5.77831 0.00134932 -0.671253
upperback -8.2277 -0.117292 1.46277
thorax -12.1196 0.00803655 2.00033
lowerneck -13.6023 -2.3012 2.70934
upperneck 17.0342 -2.83146 -5.43885
head 7.34587 -1.74511 -2.52235
rclavicle -3.23025e-015 -7.95139e-016
rhumerus 28.7124 -25.877 -60.9371
rradius 63.6751
rwrist -86.1273
rhand -50.0307 -16.7962
rfingers 7.12502
rthumb -22.6186 -45.4909
lclavicle -3.23025e-015 -7.95139e-016
lhumerus 14.7415 -42.6522 -2.38322
lradius 112.748
lwrist -28.0828
lhand -67.351 125.541
lfingers 7.12502
lthumb -39.1178 -619.945
rfemur -38.1855 -17.1326 25.6636
rtibia 67.5652
rfoot -29.5631 -9.68011
rtoes -1.44291
lfemur -29.1906 30.5821 -16.2173
ltibia 66.8644
lfoot -25.939 12.9047
ltoes -1.46168
